/* XPM */
static char * icon_xpm[] = {
"48 48 550 2",
"  	c None",
". 	c #03010D",
"+ 	c #160A50",
"@ 	c #040211",
"# 	c #1E23A0",
"$ 	c #1A2293",
"% 	c #13125F",
"& 	c #2810A0",
"* 	c #2B14A3",
"= 	c #2B17A0",
"- 	c #191B81",
"; 	c #101359",
"> 	c #050213",
", 	c #1B1F8F",
"' 	c #2811A0",
") 	c #2A14A3",
"! 	c #2C16A4",
"~ 	c #2E1BA7",
"{ 	c #311DA9",
"] 	c #2D20A5",
"^ 	c #151467",
"/ 	c #2913A2",
"( 	c #2B16A5",
"_ 	c #2E1AA7",
": 	c #301DA8",
"< 	c #3220AB",
"[ 	c #3423AD",
"} 	c #3425AB",
"| 	c #2913A1",
"1 	c #2B15A4",
"2 	c #2E19A6",
"3 	c #3323AD",
"4 	c #3626AF",
"5 	c #382AB2",
"6 	c #3A2DB4",
"7 	c #332AAB",
"8 	c #171873",
"9 	c #151F82",
"0 	c #1D2299",
"a 	c #2912A1",
"b 	c #2D19A5",
"c 	c #2F1CA8",
"d 	c #3220AA",
"e 	c #3422AC",
"f 	c #3829B1",
"g 	c #3C30B5",
"h 	c #3E33B8",
"i 	c #3D32B5",
"j 	c #0F1151",
"k 	c #2B15A3",
"l 	c #2D18A5",
"m 	c #311FAA",
"n 	c #3322AC",
"o 	c #3729B1",
"p 	c #3A2CB4",
"q 	c #3C2FB6",
"r 	c #3E33B7",
"s 	c #4036BA",
"t 	c #4239BC",
"u 	c #443DBF",
"v 	c #3E36B2",
"w 	c #121B6F",
"x 	c #2812A1",
"y 	c #3C28AA",
"z 	c #4D3CB3",
"A 	c #2F1BA8",
"B 	c #3525AE",
"C 	c #3828B1",
"D 	c #392CB3",
"E 	c #3C2FB5",
"F 	c #3E32B8",
"G 	c #4036B9",
"H 	c #463FC1",
"I 	c #4743C3",
"J 	c #4642C0",
"K 	c #0B0529",
"L 	c #3923A7",
"M 	c #A197D5",
"N 	c #E6E4F4",
"O 	c #E6E3F4",
"P 	c #E0DDF1",
"Q 	c #C1BBE5",
"R 	c #4334B2",
"S 	c #3728B1",
"T 	c #392BB3",
"U 	c #3B2FB5",
"V 	c #3E32B7",
"W 	c #3F36BA",
"X 	c #4139BB",
"Y 	c #443CBE",
"Z 	c #463FC0",
"` 	c #4A46C5",
" .	c #4C49C7",
"..	c #4E4CC9",
"+.	c #4642BB",
"@.	c #1A1A80",
"#.	c #0F165E",
"$.	c #1B259E",
"%.	c #B5ADDE",
"&.	c #F0EFF8",
"*.	c #D4D0EC",
"=.	c #7467C4",
"-.	c #B0A9DE",
";.	c #D1CDEC",
">.	c #5447B9",
",.	c #3728B0",
"'.	c #392BB2",
").	c #3B2EB5",
"!.	c #3C31B6",
"~.	c #3F35B9",
"{.	c #433CBE",
"].	c #4843C3",
"^.	c #4946C4",
"/.	c #4B49C7",
"(.	c #4D4CC9",
"_.	c #5050CB",
":.	c #5253CE",
"<.	c #5456D0",
"[.	c #121563",
"}.	c #142183",
"|.	c #121666",
"1.	c #B7AFDF",
"2.	c #ECEAF6",
"3.	c #CFCAEA",
"4.	c #B1AADE",
"5.	c #301DA9",
"6.	c #776CC8",
"7.	c #E2E0F3",
"8.	c #847BCE",
"9.	c #3B2EB4",
"0.	c #3D31B7",
"a.	c #3E34B9",
"b.	c #4138BB",
"c.	c #433BBD",
"d.	c #453FC0",
"e.	c #4742C1",
"f.	c #4A45C5",
"g.	c #4B49C6",
"h.	c #4E4BC9",
"i.	c #4F4FCB",
"j.	c #5152CD",
"k.	c #5455D0",
"l.	c #5659D2",
"m.	c #575CD4",
"n.	c #4E4FC4",
"o.	c #D7D3ED",
"p.	c #C7C1E7",
"q.	c #4C3CB3",
"r.	c #DEDBF1",
"s.	c #ADA6DD",
"t.	c #4435B3",
"u.	c #DAD8F0",
"v.	c #8D86D2",
"w.	c #726ACA",
"x.	c #B7B3E4",
"y.	c #C6C3EA",
"z.	c #B2AEE4",
"A.	c #443EBF",
"B.	c #4641C2",
"C.	c #4944C4",
"D.	c #4B48C7",
"E.	c #5355D0",
"F.	c #5559D2",
"G.	c #595FD7",
"H.	c #5C63D8",
"I.	c #5E66DA",
"J.	c #8578C9",
"K.	c #301CA8",
"L.	c #ADA5DD",
"M.	c #E6E4F5",
"N.	c #CBC8EA",
"O.	c #E2E0F4",
"P.	c #6359C3",
"Q.	c #4C41BB",
"R.	c #DFDDF3",
"S.	c #CFCCED",
"T.	c #B8B5E6",
"U.	c #B2AFE4",
"V.	c #9F9CDE",
"W.	c #4845C4",
"X.	c #4B48C6",
"Y.	c #4D4BC8",
"Z.	c #4F4ECA",
"`.	c #5151CD",
" +	c #5355CF",
".+	c #5A5FD6",
"++	c #5C62D8",
"@+	c #5E65DA",
"#+	c #5F68DC",
"$+	c #5155C8",
"%+	c #2B16A3",
"&+	c #2E18A5",
"*+	c #311FAB",
"=+	c #857BCE",
"-+	c #B5B0E2",
";+	c #4C40BC",
">+	c #9A95DA",
",+	c #E6E4F6",
"'+	c #514AC1",
")+	c #6B66CC",
"!+	c #B3B1E6",
"~+	c #4B48C5",
"{+	c #4D4AC8",
"]+	c #5052CD",
"^+	c #5558D1",
"/+	c #575BD3",
"(+	c #595ED6",
"_+	c #5B62D8",
":+	c #5D65DA",
"<+	c #5E67DC",
"[+	c #5F67DC",
"}+	c #1B1884",
"|+	c #000000",
"1+	c #3526AE",
"2+	c #9088D3",
"3+	c #7E76CE",
"4+	c #D8D6F1",
"5+	c #CDCAED",
"6+	c #A5A2E0",
"7+	c #6D68CE",
"8+	c #B9B7E8",
"9+	c #C9C8ED",
"0+	c #4C4AC7",
"a+	c #4E4ECA",
"b+	c #5150CC",
"c+	c #5354CE",
"d+	c #5557D1",
"e+	c #565AD3",
"f+	c #585ED6",
"g+	c #5B62D7",
"h+	c #5D64DA",
"i+	c #5E68DC",
"j+	c #1C1D8D",
"k+	c #050A2C",
"l+	c #2911A0",
"m+	c #2C18A5",
"n+	c #311EAA",
"o+	c #3729B0",
"p+	c #887FD0",
"q+	c #BCB7E5",
"r+	c #4D42BD",
"s+	c #E9E8F7",
"t+	c #CAC9ED",
"u+	c #B4B2E6",
"v+	c #D5D5F1",
"w+	c #AAA9E4",
"x+	c #4E4DCA",
"y+	c #5050CC",
"z+	c #575AD3",
"A+	c #585DD5",
"B+	c #5B61D7",
"C+	c #1E219B",
"D+	c #060A2B",
"E+	c #2910A0",
"F+	c #2A14A2",
"G+	c #2C17A4",
"H+	c #2F1AA7",
"I+	c #301EAA",
"J+	c #3221AB",
"K+	c #3524AE",
"L+	c #382BB2",
"M+	c #3D32B7",
"N+	c #C7C4EB",
"O+	c #EAE9F7",
"P+	c #9591DB",
"Q+	c #C9C7ED",
"R+	c #BBB9E9",
"S+	c #716FD2",
"T+	c #4E4DC9",
"U+	c #504FCB",
"V+	c #9C9DE3",
"W+	c #BFC0ED",
"X+	c #C5C6EF",
"Y+	c #868AE0",
"Z+	c #5A61D7",
"`+	c #5D64D9",
" @	c #5F68DB",
".@	c #060A2C",
"+@	c #020514",
"@@	c #2E1AA6",
"#@	c #301EA9",
"$@	c #3424AE",
"%@	c #3627B0",
"&@	c #382BB3",
"*@	c #3A2EB5",
"=@	c #3D31B6",
"-@	c #4038BB",
";@	c #C2C0EA",
">@	c #7874D1",
",@	c #4742C2",
"'@	c #D7D6F2",
")@	c #CDCCEF",
"!@	c #8B8BDC",
"~@	c #DEDFF5",
"{@	c #C9C9F0",
"]@	c #D5D6F3",
"^@	c #C9CAF1",
"/@	c #C5C7F1",
"(@	c #5C64D9",
"_@	c #4343B9",
":@	c #060A2E",
"<@	c #3523AD",
"[@	c #3627AF",
"}@	c #3E34B8",
"|@	c #4137BB",
"1@	c #514BC2",
"2@	c #8E8AD8",
"3@	c #5650C7",
"4@	c #BBBBE9",
"5@	c #C7C6ED",
"6@	c #6A6AD3",
"7@	c #CDCDF0",
"8@	c #C3C3EE",
"9@	c #A5A7E7",
"0@	c #979AE4",
"a@	c #B0B3EC",
"b@	c #BDC0EF",
"c@	c #6B72DD",
"d@	c #4A49BB",
"e@	c #060929",
"f@	c #2A13A1",
"g@	c #2B16A4",
"h@	c #3626B0",
"i@	c #3C31B7",
"j@	c #3F34B9",
"k@	c #4037BB",
"l@	c #423BBD",
"m@	c #453EBF",
"n@	c #D9D8F2",
"o@	c #C9C8EE",
"p@	c #E3E2F6",
"q@	c #9D9DE2",
"r@	c #A5A5E4",
"s@	c #D2D2F2",
"t@	c #989AE3",
"u@	c #9EA1E5",
"v@	c #595FD6",
"w@	c #9BA0E7",
"x@	c #D0D3F4",
"y@	c #6B74DE",
"z@	c #4A4ABB",
"A@	c #131769",
"B@	c #181F89",
"C@	c #2912A2",
"D@	c #2C15A4",
"E@	c #2F1CA9",
"F@	c #3120AA",
"G@	c #3626AE",
"H@	c #7D74CD",
"I@	c #D8D6F0",
"J@	c #C2BFE8",
"K@	c #CBC8EC",
"L@	c #7670CF",
"M@	c #453DBF",
"N@	c #554FC6",
"O@	c #5753C8",
"P@	c #A1A0E1",
"Q@	c #A1A1E3",
"R@	c #BABBEB",
"S@	c #C6C7EF",
"T@	c #999CE4",
"U@	c #676CD9",
"V@	c #777DDF",
"W@	c #BEC2F1",
"X@	c #6C73DE",
"Y@	c #070A2F",
"Z@	c #0B1248",
"`@	c #14094C",
" #	c #1B1172",
".#	c #2D19A6",
"+#	c #3423AC",
"@#	c #3526AF",
"##	c #4B40BB",
"$#	c #7F77CF",
"%#	c #958FD8",
"&#	c #D0CEEE",
"*#	c #F0F0F9",
"=#	c #F1F0FA",
"-#	c #BBBAE8",
";#	c #4A47C6",
">#	c #5355CE",
",#	c #CCCDF1",
"'#	c #8587DF",
")#	c #9FA2E6",
"!#	c #5B61D8",
"~#	c #5255C8",
"{#	c #0A0B39",
"]#	c #091041",
"^#	c #0C0532",
"/#	c #120E58",
"(#	c #23128F",
"_#	c #2911A1",
":#	c #2F1BA7",
"<#	c #3625AE",
"[#	c #3D33B7",
"}#	c #413ABC",
"|#	c #A19DDE",
"1#	c #DAD9F2",
"2#	c #E6E5F7",
"3#	c #D6D6F2",
"4#	c #5C5CCD",
"5#	c #5254CE",
"6#	c #5457D1",
"7#	c #A1A3E6",
"8#	c #E5E6F8",
"9#	c #DEE0F7",
"0#	c #D2D4F4",
"a#	c #0B0C40",
"b#	c #090E3C",
"c#	c #2E255B",
"d#	c #D6D4E0",
"e#	c #141971",
"f#	c #1F1A8D",
"g#	c #2A139F",
"h#	c #311EA9",
"i#	c #3221AC",
"j#	c #3D32B8",
"k#	c #4035BA",
"l#	c #4139BC",
"m#	c #4842C2",
"n#	c #5855C9",
"o#	c #7170D2",
"p#	c #CECEF0",
"q#	c #E7E7F8",
"r#	c #BABAEB",
"s#	c #5457D0",
"t#	c #BCBEEE",
"u#	c #D6D8F5",
"v#	c #D1D3F4",
"w#	c #090425",
"x#	c #352B65",
"y#	c #FFFFFF",
"z#	c #363E84",
"A#	c #2A179B",
"B#	c #3628B0",
"C#	c #3C32B7",
"D#	c #443CBD",
"E#	c #4A46C4",
"F#	c #4C48C7",
"G#	c #ACADE7",
"H#	c #F2F3FB",
"I#	c #BFC0EE",
"J#	c #5A60D6",
"K#	c #5C63D9",
"L#	c #5254C8",
"M#	c #0E1152",
"N#	c #0A0426",
"O#	c #8680A3",
"P#	c #696E9B",
"Q#	c #1B187E",
"R#	c #2B1999",
"S#	c #3424AD",
"T#	c #4945C4",
"U#	c #4D4CC8",
"V#	c #5252CE",
"W#	c #ACADE8",
"X#	c #A0A2E6",
"Y#	c #5960D6",
"Z#	c #5E67DB",
"`#	c #10135A",
" $	c #050926",
".$	c #090424",
"+$	c #6C74AF",
"@$	c #15146B",
"#$	c #2A1B98",
"$$	c #382AB1",
"%$	c #453FBF",
"&$	c #4741C2",
"*$	c #4D4BC9",
"=$	c #5659D1",
"-$	c #585CD4",
";$	c #5E66DB",
">$	c #151A76",
",$	c #04061C",
"'$	c #151872",
")$	c #1F1C8F",
"!$	c #3F33B8",
"~$	c #423ABD",
"{$	c #4741C1",
"]$	c #4B47C5",
"^$	c #4C4BC8",
"/$	c #4F4ECB",
"($	c #171D81",
"_$	c #030518",
":$	c #0A0427",
"<$	c #AFABC2",
"[$	c #131A70",
"}$	c #1F198B",
"|$	c #3A30B0",
"1$	c #4239BD",
"2$	c #4640C1",
"3$	c #5354CF",
"4$	c #575BD4",
"5$	c #595FD5",
"6$	c #333C79",
"7$	c #1C177E",
"8$	c #372BA5",
"9$	c #4640C0",
"0$	c #4A47C5",
"a$	c #4C4AC8",
"b$	c #5254CF",
"c$	c #5557D0",
"d$	c #5154C8",
"e$	c #292442",
"f$	c #A09CB2",
"g$	c #8B91BF",
"h$	c #46458A",
"i$	c #342BA6",
"j$	c #4B4AC7",
"k$	c #5B60D7",
"l$	c #5A60D4",
"m$	c #0C052E",
"n$	c #BCB9C7",
"o$	c #ACB2DE",
"p$	c #171773",
"q$	c #1D1E93",
"r$	c #565AD2",
"s$	c #5F67DB",
"t$	c #5A5FD4",
"u$	c #040720",
"v$	c #4D4DC7",
"w$	c #585DD4",
"x$	c #5A60D7",
"y$	c #5960D4",
"z$	c #252D7A",
"A$	c #4745BA",
"B$	c #575DD4",
"C$	c #04061B",
"D$	c #686868",
"E$	c #4948BD",
"F$	c #5E65DB",
"G$	c #040820",
"H$	c #17146E",
"I$	c #3E3CB2",
"J$	c #3E3CB0",
"K$	c #2A2448",
"L$	c #0F0737",
"M$	c #201583",
"N$	c #302B4D",
"O$	c #D7D6DC",
"P$	c #858585",
"Q$	c #D8D7DD",
"R$	c #EAEAEA",
"S$	c #4C4C4C",
"T$	c #121212",
"U$	c #292247",
"V$	c #A1A1A5",
"W$	c #171717",
"X$	c #050216",
"Y$	c #000002",
"                                                                                                ",
"                                                                                                ",
"                                                                                                ",
"                                                . +                                             ",
"                                              @ # $ %                                           ",
"                                            @ # & * = - ;                                       ",
"                                          > , ' ) ! ~ { ] ^                                     ",
"                                        > , ' / ( _ : < [ } - ;                                 ",
"                                      @ , & | 1 2 : < 3 4 5 6 7 8 9                             ",
"                                    @ 0 & a ! b c d e 4 f 6 g h i - j                           ",
"                                  @ 0 ' a k l c m n 4 o p q r s t u v 8 w                       ",
"                                @ 0 & x y z A m n B C D E F G t u H I J , j                     ",
"                              K 0 L M N O P Q R B S T U V W X Y Z I `  ...+.@.#.                ",
"                            K $.L %.&.*.=.-.;.>.,.'.).!.~.X {.Z ].^./.(._.:.<.# [.}.            ",
"                          |.$.& 1.2.3.4.5.6.7.8.5 9.0.a.b.c.d.e.f.g.h.i.j.k.l.m.n.@.#.          ",
"                        |.$.& & o.p.q.r.s.t.u.v.6 w.x.y.z.A.B.C.D.(.i.j.E.F.m.G.H.I.# [.}.      ",
"                      |.$.' & / J.2 K.L.M.N.O.P.Q.R.S.T.U.V.W.X.Y.Z.`. +F.m..+++@+#+#+$+@.j     ",
"                    |.$.' & a %+&+c *+3 =+7.-+;+>+,+'+)+V.!+~+{+Z.]+ +^+/+(+_+:+<+#+[+[+[+}+|+  ",
"                  |.$.& & x k l A m e 1+2+7.3+r 4+5+6+7+8+9+0+a+b+c+d+e+f+g+h+i+#+#+#+<+j+k+|+  ",
"                |.$.& ' l+) m+~ n+n B o+p+q+r+W s+4+t+u+v+w+x+y+c+d+z+A+B+h+i+#+#+[+#+C+D+|+    ",
"              |.$.' ' E+F+G+H+I+J+K+,.L+).M+W N+O+P+Q+R+S+T+U+V+W+X+Y+Z+`+ @[+[+#+[+# .@+@      ",
"            |.$.& & & F+G+@@#@J+$@%@&@*@=@a.-@;@>@,@'@)@(.!@~@{@]@^@/@(@<+i+#+#+#+_@:@|+        ",
"          |.$.& & ' / G+@@5.< <@[@5 6 !.}@|@1@2@3@C.4@5@6@7@8@9@0@a@b@c@#+#+#+#+d@e@|+          ",
"        |.$.& & ' f@g@2 K.d [ h@5 6 i@j@k@l@m@'@n@o@p@q@r@s@t@u@v@w@x@y@i+#+[+z@e@|+            ",
"      A@B@& ' & C@D@&+E@F@[ G@f H@I@J@K@L@M@N@O@P@w+Q@`.R@S@T@U@_+V@W@X@#+#+z@Y@Z@              ",
"    `@ #& & & a k .#c m +#@#o D ##$#%#&#*#=#-#;#{+Z.`.>#,#'#)#!#:+i+#+#+#+~#{#]#                ",
"    ^#/#(#' _#) l :#n+n <#S D E [#W }#u |#1#2#3#4#y+5#6#7#8#9#0##+#+#+#+$+a#b#                  ",
"    c#d#e#f#g#m+:#h#i#B ,.'.E j#k#l#Y H m#n#o#p#q#r#s#e+A+t#u#v#[+#+#+~#a#b#                    ",
"  w#x#y#y#z#f#A#5.i#$@B#&@).C#~.l#D#d.,@E#F#..y+G#H#I#A+J#K#[+#+[+#+L#M#.@                      ",
"    N#O#y#y#P#Q#R#S#%@'.*@=@j@b.l@d.m#T#/.U#i.V#<.W#X#Y#K#Z#[+[+i+L#`# $                        ",
"      .$O#y#y#+$@$#$$$6 =@j@b.c.%$&$T#D.*$i.j.<.=$-$.+H.;$#+#+#+$+>$,$                          ",
"        .$O#y#y#y#'$)$!.!$|@~$m@{$C.]$^$/$`. +^+m.v@++@+#+#+i+L#($_$                            ",
"          :$<$y#y#y#[$}$|$1$A.2$C.]$^$/$`.3$^+4$5$_+:+[+#+[+~#($_$                              ",
"            :$<$y#y#y#6$7$8$9$].0$a$a+y+b$c$z+(+!#:+i+[+#+d$($_$                                ",
"              e$f$y#y#y#g$h$i$` j$..b+5#d+/+A+k$:+#+i+#+l$- ,$                                  ",
"                m$n$y#y#y#o$p$q$T+_.:.s#r$A+k$(@s$#+#+t$- u$                                    ",
"                  m$n$y#y#y#y#'$f#v$<.r$w$x$K#;$[+#+y$- u$                                      ",
"                    m$n$y#y#y#y#z$f#A$B$J#H.;$[+i+l$, C$                                        ",
"                      m$n$y#y#y#y#D$Q#E$H.F$i+[+l$, G$                                          ",
"                        m$n$y#y#y#y#y#H$I$[+#+[+C+C$                                            ",
"                          m$n$y#y#y#y#y#p$q$#+J$,$                                              ",
"                            K$n$y#y#y#y#y#L$M$u$                                                ",
"                              N$O$y#y#y#y#P$|+|+                                                ",
"                                N$Q$y#R$S$T$                                                    ",
"                                  U$V$W$|+                                                      ",
"                                  `@X$Y$                                                        ",
"                                                                                                ",
"                                                                                                "};
